<svg width="24" height="24" viewBox="0 0 24 24" fill="none" xmlns="http://www.w3.org/2000/svg">
<path d="M13.0597 12.0002L19.2847 5.78459C19.4043 5.63887 19.4654 5.45387 19.4562 5.26558C19.4469 5.07729 19.368 4.89917 19.2347 4.76587C19.1014 4.63257 18.9232 4.55362 18.7349 4.54437C18.5467 4.53512 18.3617 4.59624 18.2159 4.71584L12.0003 10.9408L5.78469 4.71584C5.63897 4.59624 5.45397 4.53512 5.26568 4.54437C5.07739 4.55362 4.89927 4.63257 4.76597 4.76587C4.63267 4.89917 4.55372 5.07729 4.54447 5.26558C4.53522 5.45387 4.59634 5.63887 4.71594 5.78459L10.9409 12.0002L4.71594 18.2158C4.5751 18.358 4.49609 18.5501 4.49609 18.7502C4.49609 18.9504 4.5751 19.1424 4.71594 19.2846C4.85929 19.4232 5.0509 19.5007 5.25031 19.5007C5.44972 19.5007 5.64133 19.4232 5.78469 19.2846L12.0003 13.0596L18.2159 19.2846C18.3593 19.4232 18.5509 19.5007 18.7503 19.5007C18.9497 19.5007 19.1413 19.4232 19.2847 19.2846C19.4255 19.1424 19.5045 18.9504 19.5045 18.7502C19.5045 18.5501 19.4255 18.358 19.2847 18.2158L13.0597 12.0002Z" fill="white"/>
</svg>
