<svg width="151" height="57" viewBox="0 0 151 57" fill="none" xmlns="http://www.w3.org/2000/svg">
<path d="M87 0H63C59.6863 0 57 2.68629 57 6V30C57 33.3137 59.6863 36 63 36H87C90.3137 36 93 33.3137 93 30V6C93 2.68629 90.3137 0 87 0Z" fill="#1EBD23"/>
<mask id="mask0_1_13" style="mask-type:luminance" maskUnits="userSpaceOnUse" x="62" y="3" width="25" height="30">
<path d="M86.8132 3.85718H62.5039V32.1429H86.8132V3.85718Z" fill="white"/>
</mask>
<g mask="url(#mask0_1_13)">
<path d="M82.0826 8.16369L79.4264 9.71969L77.3831 10.9142L74.7112 12.4754L72.0393 10.9142L71.9345 10.8513L69.9961 9.71969L67.3398 8.16369L70.0065 6.60769L72.055 5.40794L74.7112 3.85718L77.3674 5.40794L79.4159 6.60769L82.0826 8.16369Z" fill="white"/>
<path d="M82.1497 13.7014V22.3563L79.4778 23.9176V18.3956L77.3822 19.6215V25.1435L74.7103 26.7047L71.9336 25.0806V19.5587L69.8379 18.3327V23.8547L67.166 22.2934V13.759L69.8379 12.1978L69.9375 12.1401L71.9336 13.3084L72.6094 13.7014L74.7103 14.9326L76.8111 13.7014L77.3822 13.3713L79.4778 12.1454L79.4831 12.1401L82.1497 13.7014Z" fill="white"/>
<path d="M86.8132 10.9298V25.0753L84.246 26.5737L82.1504 27.7996L77.32 30.6235L74.7109 32.1428L72.1019 30.6235L67.1667 27.7367L65.071 26.5108L62.5039 25.0124V10.9875L65.2335 9.39478L67.1667 10.5212L67.8949 10.9455L67.1667 11.3699L65.071 12.5958V23.4617L67.1667 24.6876L69.8386 26.2488L71.9342 27.4748L72.6625 27.8992L74.7109 29.0989L76.7594 27.8992L77.3829 27.5377L79.4785 26.3117L82.1504 24.7505L84.246 23.5245V12.533L82.1504 11.307L81.527 10.9455L82.1504 10.584L84.1884 9.39478L86.8132 10.9298Z" fill="white"/>
</g>
<path d="M10.0313 44.017C9.9631 43.3295 9.6705 42.7954 9.1535 42.4148C8.6364 42.0341 7.9347 41.8437 7.0483 41.8437C6.4461 41.8437 5.9375 41.929 5.5228 42.0994C5.108 42.2642 4.7898 42.4943 4.5682 42.7898C4.3523 43.0852 4.2444 43.4205 4.2444 43.7955C4.233 44.1079 4.2983 44.3807 4.4404 44.6136C4.5881 44.8466 4.7898 45.0483 5.0455 45.2187C5.3012 45.3835 5.5966 45.5284 5.9319 45.6534C6.2671 45.7727 6.625 45.875 7.0057 45.9602L8.5739 46.3352C9.3353 46.5057 10.0341 46.7329 10.6705 47.017C11.3069 47.3011 11.858 47.6506 12.3239 48.0653C12.7898 48.4801 13.1506 48.9687 13.4063 49.5312C13.6677 50.0937 13.8012 50.7386 13.8069 51.4659C13.8012 52.5341 13.5285 53.4602 12.9887 54.2443C12.4546 55.0227 11.6819 55.6278 10.6705 56.0597C9.6648 56.4858 8.4518 56.6989 7.0313 56.6989C5.6222 56.6989 4.3949 56.4829 3.3495 56.0511C2.3097 55.6193 1.4972 54.9801 0.912003 54.1335C0.332403 53.2812 0.0285 52.2273 0 50.9716H3.5711C3.6108 51.5568 3.7785 52.0454 4.0739 52.4375C4.375 52.8239 4.7756 53.1165 5.2756 53.3153C5.7813 53.5085 6.3523 53.6051 6.9887 53.6051C7.6137 53.6051 8.1563 53.5142 8.6165 53.3324C9.0824 53.1506 9.4432 52.8977 9.6989 52.5739C9.9546 52.25 10.0824 51.8778 10.0824 51.4574C10.0824 51.0653 9.966 50.7358 9.733 50.4687C9.5057 50.2017 9.1705 49.9744 8.7273 49.7869C8.2898 49.5994 7.7529 49.429 7.1165 49.2756L5.216 48.7983C3.7444 48.4403 2.5824 47.8807 1.7302 47.1193C0.877902 46.3579 0.4546 45.3324 0.4603 44.0426C0.4546 42.9858 0.735801 42.0625 1.304 41.2727C1.8779 40.4829 2.6648 39.8665 3.6648 39.4233C4.6648 38.9801 5.8012 38.7585 7.0739 38.7585C8.3694 38.7585 9.5 38.9801 10.466 39.4233C11.4375 39.8665 12.1932 40.4829 12.733 41.2727C13.2728 42.0625 13.5512 42.9773 13.5682 44.017H10.0313ZM16.2209 56.4517V43.3608H19.6812V45.6705H19.8346C20.1073 44.9034 20.5618 44.2983 21.1982 43.8551C21.8346 43.4119 22.5959 43.1903 23.4823 43.1903C24.38 43.1903 25.1442 43.4148 25.7749 43.8636C26.4056 44.3068 26.826 44.9091 27.0363 45.6705H27.1726C27.4397 44.9205 27.9226 44.321 28.6215 43.8722C29.326 43.4176 30.1584 43.1903 31.1187 43.1903C32.3402 43.1903 33.3317 43.5795 34.0931 44.3579C34.8601 45.1307 35.2437 46.2273 35.2437 47.6477V56.4517H31.6215V48.3636C31.6215 47.6364 31.4283 47.0909 31.0419 46.7273C30.6556 46.3636 30.1726 46.1818 29.5931 46.1818C28.934 46.1818 28.4198 46.392 28.0505 46.8125C27.6812 47.2273 27.4965 47.7756 27.4965 48.4574V56.4517H23.9766V48.2869C23.9766 47.6449 23.7919 47.1335 23.4226 46.7528C23.059 46.3722 22.5789 46.1818 21.9823 46.1818C21.5789 46.1818 21.2152 46.2841 20.8914 46.4886C20.5732 46.6875 20.3204 46.9687 20.1329 47.3324C19.9454 47.6903 19.8516 48.1108 19.8516 48.5937V56.4517H16.2209ZM41.8445 56.6989C41.0093 56.6989 40.265 56.554 39.6116 56.2642C38.9581 55.9687 38.4411 55.5341 38.0604 54.9602C37.6854 54.3807 37.4979 53.6591 37.4979 52.7955C37.4979 52.0682 37.6314 51.4574 37.8985 50.9631C38.1655 50.4687 38.5292 50.071 38.9894 49.7699C39.4496 49.4687 39.9723 49.2415 40.5576 49.0881C41.1485 48.9347 41.7678 48.8267 42.4155 48.7642C43.1769 48.6847 43.7905 48.6108 44.2564 48.5426C44.7223 48.4687 45.0604 48.3608 45.2706 48.2187C45.4809 48.0767 45.586 47.8665 45.586 47.5881V47.5369C45.586 46.9972 45.4155 46.5795 45.0746 46.2841C44.7394 45.9886 44.2621 45.8409 43.6428 45.8409C42.9894 45.8409 42.4695 45.9858 42.0831 46.2756C41.6968 46.5597 41.4411 46.9176 41.3161 47.3494L37.9581 47.0767C38.1286 46.2812 38.4638 45.5937 38.9638 45.0142C39.4638 44.429 40.1087 43.9801 40.8985 43.6676C41.6939 43.3494 42.6144 43.1903 43.6598 43.1903C44.3871 43.1903 45.0831 43.2756 45.7479 43.446C46.4184 43.6165 47.0121 43.8807 47.5292 44.2386C48.0519 44.5966 48.4638 45.0568 48.765 45.6193C49.0661 46.1761 49.2167 46.8437 49.2167 47.6222V56.4517H45.7735V54.6364H45.6712C45.461 55.0455 45.1797 55.4062 44.8275 55.7187C44.4752 56.0256 44.0519 56.267 43.5576 56.4432C43.0633 56.6136 42.4922 56.6989 41.8445 56.6989ZM42.8843 54.1932C43.4184 54.1932 43.89 54.0881 44.2991 53.8778C44.7081 53.6619 45.0292 53.3722 45.2621 53.0085C45.4951 52.6449 45.6116 52.2329 45.6116 51.7727V50.3835C45.4979 50.4574 45.3417 50.5256 45.1428 50.5881C44.9496 50.6449 44.7309 50.6989 44.4866 50.75C44.2422 50.7954 43.9979 50.8381 43.7536 50.8778C43.5093 50.9119 43.2877 50.9432 43.0888 50.9716C42.6627 51.0341 42.2905 51.1335 41.9723 51.2699C41.6542 51.4062 41.407 51.5909 41.2309 51.8239C41.0547 52.0511 40.9667 52.3352 40.9667 52.6761C40.9667 53.1705 41.1456 53.5483 41.5036 53.8097C41.8672 54.0653 42.3275 54.1932 42.8843 54.1932ZM52.0334 56.4517V43.3608H55.5533V45.6449H55.6897C55.9283 44.8324 56.3289 44.2187 56.8914 43.804C57.4539 43.3835 58.1015 43.1733 58.8345 43.1733C59.0165 43.1733 59.2125 43.1847 59.4225 43.2074C59.6325 43.2301 59.8175 43.2614 59.9765 43.3011V46.5227C59.8065 46.4716 59.5705 46.4261 59.2695 46.3864C58.9685 46.3466 58.6925 46.3267 58.4425 46.3267C57.9084 46.3267 57.4312 46.4432 57.0107 46.6761C56.5959 46.9034 56.2664 47.2216 56.0221 47.6307C55.7834 48.0398 55.6641 48.5114 55.6641 49.0455V56.4517H52.0334ZM69.4735 43.3608V46.0881H61.5895V43.3608H69.4735ZM63.3795 40.2244H67.0095V52.429C67.0095 52.7642 67.0615 53.0256 67.1635 53.2131C67.2655 53.3949 67.4075 53.5227 67.5895 53.5966C67.7775 53.6704 67.9925 53.7074 68.2375 53.7074C68.4075 53.7074 68.5785 53.6932 68.7485 53.6648C68.9195 53.6307 69.0495 53.6051 69.1405 53.5881L69.7115 56.2898C69.5295 56.3466 69.2745 56.4119 68.9445 56.4858C68.6155 56.5653 68.2145 56.6136 67.7425 56.6307C66.8675 56.6648 66.1005 56.5483 65.4415 56.2812C64.7885 56.0142 64.2795 55.5994 63.9165 55.0369C63.5525 54.4744 63.3735 53.7642 63.3795 52.9062V40.2244ZM77.3925 56.4517V43.3608H80.8535V45.6705H81.0065C81.2795 44.9034 81.7335 44.2983 82.3705 43.8551C83.0065 43.4119 83.7675 43.1903 84.6545 43.1903C85.5515 43.1903 86.3165 43.4148 86.9465 43.8636C87.5775 44.3068 87.9975 44.9091 88.2085 45.6705H88.3445C88.6115 44.9205 89.0945 44.321 89.7935 43.8722C90.4975 43.4176 91.3305 43.1903 92.2905 43.1903C93.5125 43.1903 94.5035 43.5795 95.2645 44.3579C96.0325 45.1307 96.4155 46.2273 96.4155 47.6477V56.4517H92.7935V48.3636C92.7935 47.6364 92.6005 47.0909 92.2135 46.7273C91.8275 46.3636 91.3445 46.1818 90.7645 46.1818C90.1055 46.1818 89.5915 46.392 89.2225 46.8125C88.8535 47.2273 88.6685 47.7756 88.6685 48.4574V56.4517H85.1485V48.2869C85.1485 47.6449 84.9635 47.1335 84.5945 46.7528C84.2305 46.3722 83.7505 46.1818 83.1545 46.1818C82.7505 46.1818 82.3875 46.2841 82.0635 46.4886C81.7455 46.6875 81.4925 46.9687 81.3045 47.3324C81.1175 47.6903 81.0235 48.1108 81.0235 48.5937V56.4517H77.3925ZM103.016 56.6989C102.181 56.6989 101.437 56.554 100.784 56.2642C100.131 55.9687 99.6125 55.5341 99.2325 54.9602C98.8575 54.3807 98.6695 53.6591 98.6695 52.7955C98.6695 52.0682 98.8035 51.4574 99.0705 50.9631C99.3375 50.4687 99.7015 50.071 100.161 49.7699C100.621 49.4687 101.145 49.2415 101.73 49.0881C102.321 48.9347 102.94 48.8267 103.588 48.7642C104.349 48.6847 104.962 48.6108 105.428 48.5426C105.894 48.4687 106.233 48.3608 106.443 48.2187C106.653 48.0767 106.758 47.8665 106.758 47.5881V47.5369C106.758 46.9972 106.588 46.5795 106.247 46.2841C105.912 45.9886 105.433 45.8409 104.814 45.8409C104.161 45.8409 103.642 45.9858 103.256 46.2756C102.869 46.5597 102.613 46.9176 102.488 47.3494L99.1305 47.0767C99.3005 46.2812 99.6355 45.5937 100.135 45.0142C100.635 44.429 101.28 43.9801 102.07 43.6676C102.865 43.3494 103.786 43.1903 104.831 43.1903C105.558 43.1903 106.255 43.2756 106.919 43.446C107.59 43.6165 108.184 43.8807 108.702 44.2386C109.224 44.5966 109.636 45.0568 109.937 45.6193C110.238 46.1761 110.389 46.8437 110.389 47.6222V56.4517H106.945V54.6364H106.844C106.633 55.0455 106.351 55.4062 105.999 55.7187C105.647 56.0256 105.224 56.267 104.73 56.4432C104.236 56.6136 103.664 56.6989 103.016 56.6989ZM104.057 54.1932C104.591 54.1932 105.062 54.0881 105.471 53.8778C105.881 53.6619 106.202 53.3722 106.434 53.0085C106.667 52.6449 106.784 52.2329 106.784 51.7727V50.3835C106.67 50.4574 106.513 50.5256 106.314 50.5881C106.121 50.6449 105.903 50.6989 105.659 50.75C105.415 50.7954 105.17 50.8381 104.926 50.8778C104.682 50.9119 104.459 50.9432 104.26 50.9716C103.834 51.0341 103.463 51.1335 103.145 51.2699C102.827 51.4062 102.578 51.5909 102.402 51.8239C102.226 52.0511 102.139 52.3352 102.139 52.6761C102.139 53.1705 102.318 53.5483 102.676 53.8097C103.04 54.0653 103.5 54.1932 104.057 54.1932ZM120.169 43.3608V46.0881H112.285V43.3608H120.169ZM114.075 40.2244H117.706V52.429C117.706 52.7642 117.757 53.0256 117.859 53.2131C117.961 53.3949 118.104 53.5227 118.285 53.5966C118.473 53.6704 118.688 53.7074 118.932 53.7074C119.103 53.7074 119.273 53.6932 119.443 53.6648C119.614 53.6307 119.745 53.6051 119.835 53.5881L120.408 56.2898C120.226 56.3466 119.969 56.4119 119.639 56.4858C119.31 56.5653 118.91 56.6136 118.439 56.6307C117.564 56.6648 116.796 56.5483 116.137 56.2812C115.483 56.0142 114.975 55.5994 114.611 55.0369C114.247 54.4744 114.069 53.7642 114.075 52.9062V40.2244ZM122.534 56.4517V43.3608H126.053V45.6449H126.189C126.428 44.8324 126.828 44.2187 127.391 43.804C127.953 43.3835 128.602 43.1733 129.335 43.1733C129.517 43.1733 129.713 43.1847 129.923 43.2074C130.133 43.2301 130.318 43.2614 130.477 43.3011V46.5227C130.307 46.4716 130.071 46.4261 129.77 46.3864C129.469 46.3466 129.193 46.3267 128.943 46.3267C128.409 46.3267 127.931 46.4432 127.51 46.6761C127.095 46.9034 126.767 47.2216 126.523 47.6307C126.284 48.0398 126.165 48.5114 126.165 49.0455V56.4517H122.534ZM132.354 56.4517V43.3608H135.984V56.4517H132.354ZM134.178 41.6733C133.638 41.6733 133.174 41.4943 132.788 41.1364C132.407 40.7727 132.217 40.3381 132.217 39.8324C132.217 39.3324 132.407 38.9034 132.788 38.5455C133.174 38.1818 133.638 38 134.178 38C134.718 38 135.178 38.1818 135.559 38.5455C135.945 38.9034 136.137 39.3324 136.137 39.8324C136.137 40.3381 135.945 40.7727 135.559 41.1364C135.178 41.4943 134.718 41.6733 134.178 41.6733ZM141.926 43.3608L144.331 47.9375L146.794 43.3608H150.518L146.725 49.9062L150.62 56.4517H146.913L144.331 51.9261L141.79 56.4517H138.04L141.926 49.9062L138.176 43.3608H141.926Z" fill="white"/>
</svg>
